#!OML:ASF X:\für Bonn\!DataBase\2005_08_12_Daniel\c3d\Daniel.ASF
:FULLY-SPECIFIED
:DEGREES
155
root 1.53648 17.4276 18.4788 186.572 -260.96 550.636
lowerback 5.44729 -5.99672 0.886321
upperback 0.74654 -8.02374 -4.68732
thorax -3.06384 -4.02307 -4.65872
lowerneck 9.57983 -12.3726 -5.83547
upperneck 9.40696 -16.9858 3.57113
head 2.31095 -8.57278 2.14721
rclavicle 1.17606e-013 4.37326e-014
rhumerus 10.6583 -14.2779 -14.0242
rradius 47.5061
rwrist 3.19195
rhand 15.0032 9.29613
rfingers 7.12502
rthumb 39.8547 -15.9736
lclavicle 1.17606e-013 4.37326e-014
lhumerus -52.0131 46.4346 48.8138
lradius 22.9825
lwrist -34.7261
lhand -8.88356 -6.60501
lfingers 7.12502
lthumb 17.0585 22.666
rfemur 3.37892 31.8257 26.4165
rtibia 26.2605
rfoot -44.7003 -34.3907
rtoes -3.39279
lfemur -4.77734 3.80065 -9.47015
ltibia 37.5432
lfoot -19.0693 13.8951
ltoes -15.8172
156
root 1.53487 17.4252 18.4762 187.057 -261.376 551.084
lowerback 5.48296 -6.02418 0.857391
upperback 0.735394 -8.06229 -4.66634
thorax -3.09178 -4.04186 -4.61278
lowerneck 9.58463 -12.4083 -5.91455
upperneck 9.50412 -17.0388 3.56303
head 2.35327 -8.601 2.15224
rclavicle -9.13167e-014 -1.19271e-014
rhumerus 9.93508 -15.4281 -14.3655
rradius 48.5203
rwrist 2.94373
rhand 14.8134 9.40322
rfingers 7.12502
rthumb 39.6759 -15.9198
lclavicle -9.13167e-014 -1.19271e-014
lhumerus -51.3572 45.9217 49.7342
lradius 23.2943
lwrist -34.1858
lhand -8.91351 -6.55809
lfingers 7.12502
lthumb 17.0297 22.7154
rfemur 3.4604 32.035 26.5745
rtibia 26.2993
rfoot -45.3515 -34.7348
rtoes -3.16948
lfemur -4.96106 3.93894 -9.47346
ltibia 37.5682
lfoot -19.1575 13.821
ltoes -15.7136
157
root 1.5338 17.4229 18.4721 187.565 -261.783 551.568
lowerback 5.52802 -6.05117 0.822641
upperback 0.732998 -8.10008 -4.63532
thorax -3.11341 -4.0599 -4.55286
lowerneck 9.56903 -12.4363 -6.01269
upperneck 9.58698 -17.082 3.54735
head 2.39469 -8.62495 2.15695
rclavicle -1.73688e-014 -7.95139e-016
rhumerus 9.20251 -16.6333 -14.7109
rradius 49.6004
rwrist 2.68668
rhand 14.5512 9.60574
rfingers 7.12502
rthumb 39.429 -15.79
lclavicle -1.73688e-014 -7.95139e-016
lhumerus -50.7051 45.4019 50.67
lradius 23.6096
lwrist -33.6206
lhand -8.95979 -6.49892
lfingers 7.12502
lthumb 16.9851 22.7785
rfemur 3.53761 32.1547 26.7044
rtibia 26.3372
rfoot -45.9069 -35.0328
rtoes -3.00051
lfemur -5.13749 4.10793 -9.47723
ltibia 37.6001
lfoot -19.2429 13.7442
ltoes -15.5538
158
root 1.5328 17.4213 18.4677 188.164 -262.209 552.129
lowerback 5.55764 -6.07363 0.792608
upperback 0.724322 -8.13176 -4.61045
thorax -3.1339 -4.0751 -4.50378
lowerneck 9.58846 -12.4569 -6.11717
upperneck 9.6791 -17.1172 3.54319
head 2.43494 -8.64523 2.16858
rclavicle 4.47762e-014 3.10104e-014
rhumerus 8.37569 -17.8881 -15.0745
rradius 50.806
rwrist 2.46517
rhand 14.2499 9.89303
rfingers 7.12502
rthumb 39.1451 -15.5853
lclavicle 4.47762e-014 3.10104e-014
lhumerus -50.0478 44.8372 51.6117
lradius 23.9291
lwrist -33.0819
lhand -8.99105 -6.42038
lfingers 7.12502
lthumb 16.9551 22.8596
rfemur 3.62042 32.3222 26.8447
rtibia 26.3682
rfoot -46.5551 -35.3395
rtoes -2.84238
lfemur -5.34313 4.27762 -9.49044
ltibia 37.6423
lfoot -19.3165 13.6799
ltoes -15.4403
159
root 1.53291 17.4194 18.4632 188.798 -262.621 552.726
lowerback 5.57718 -6.0918 0.753256
upperback 0.715833 -8.15794 -4.57871
thorax -3.14567 -4.08733 -4.4442
lowerneck 9.6368 -12.4632 -6.25254
upperneck 9.74235 -17.1375 3.55578
head 2.46456 -8.65933 2.19366
rclavicle 3.43649e-014 -1.11319e-014
rhumerus 7.52718 -19.1626 -15.4424
rradius 52.0862
rwrist 2.2779
rhand 13.8578 10.28
rfingers 7.12502
rthumb 38.7754 -15.304
lclavicle 3.43649e-014 -1.11319e-014
lhumerus -49.435 44.2889 52.5109
lradius 24.2622
lwrist -32.5391
lhand -8.98271 -6.37254
lfingers 7.12502
lthumb 16.9631 22.9067
rfemur 3.69233 32.4509 26.972
rtibia 26.3985
rfoot -47.1254 -35.6326
rtoes -2.72841
lfemur -5.55198 4.48672 -9.50156
ltibia 37.6944
lfoot -19.3725 13.611
ltoes -15.3065
160
root 1.53276 17.4176 18.4574 189.538 -263.048 553.433
lowerback 5.6042 -6.11347 0.729015
upperback 0.710526 -8.18818 -4.56061
thorax -3.16279 -4.10185 -4.40592
lowerneck 9.67613 -12.4599 -6.43988
upperneck 9.83836 -17.1525 3.61735
head 2.51714 -8.672 2.24033
rclavicle 3.42655e-014 3.4191e-014
rhumerus 6.62215 -20.4816 -15.8485
rradius 53.4961
rwrist 2.18823
rhand 13.4932 10.6422
rfingers 7.12502
rthumb 38.4315 -15.0384
lclavicle 3.42655e-014 3.4191e-014
lhumerus -48.8259 43.7198 53.3851
lradius 24.5873
lwrist -31.9436
lhand -8.98724 -6.33997
lfingers 7.12502
lthumb 16.9587 22.9397
rfemur 3.78377 32.5913 27.1032
rtibia 26.4197
rfoot -47.7395 -35.9305
rtoes -2.55426
lfemur -5.77208 4.71767 -9.51655
ltibia 37.7598
lfoot -19.4349 13.5298
ltoes -15.0896
161
root 1.53263 17.4157 18.4505 190.379 -263.487 554.253
lowerback 5.64204 -6.13861 0.70874
upperback 0.705414 -8.22298 -4.53916
thorax -3.18615 -4.11871 -4.36468
lowerneck 9.73079 -12.4377 -6.72339
upperneck 9.94631 -17.155 3.73938
head 2.5869 -8.68143 2.32192
rclavicle -1.35745e-013 -1.66979e-014
rhumerus 5.65471 -21.76 -16.1921
rradius 55.0473
rwrist 2.13432
rhand 13.1201 11.0045
rfingers 7.12502
rthumb 38.0793 -14.7731
lclavicle -1.35745e-013 -1.66979e-014
lhumerus -48.2383 43.172 54.2098
lradius 24.881
lwrist -31.3401
lhand -9.01384 -6.26067
lfingers 7.12502
lthumb 16.9331 23.0212
rfemur 3.87676 32.6732 27.2232
rtibia 26.4367
rfoot -48.3303 -36.1834
rtoes -2.40981
lfemur -5.99729 4.97481 -9.53463
ltibia 37.8421
lfoot -19.4876 13.4364
ltoes -14.9791
162
root 1.53289 17.4137 18.4434 191.213 -263.921 555.063
lowerback 5.66238 -6.15415 0.704817
upperback 0.714006 -8.24324 -4.52591
thorax -3.18776 -4.12833 -4.34508
lowerneck 9.74739 -12.42 -6.98487
upperneck 10.0841 -17.1596 3.84693
head 2.67012 -8.69108 2.392
rclavicle 6.30147e-014 2.14687e-014
rhumerus 4.64655 -23.0813 -16.5288
rradius 56.6897
rwrist 2.16471
rhand 12.8081 11.3107
rfingers 7.12502
rthumb 37.7846 -14.5468
lclavicle 6.30147e-014 2.14687e-014
lhumerus -47.6354 42.6463 54.9923
lradius 25.1506
lwrist -30.7719
lhand -9.07604 -6.15908
lfingers 7.12502
lthumb 16.8732 23.1279
rfemur 3.97225 32.7584 27.3541
rtibia 26.441
rfoot -48.8918 -36.475
rtoes -2.28891
lfemur -6.22655 5.24818 -9.5441
ltibia 37.9407
lfoot -19.5646 13.3554
ltoes -14.8087
163
root 1.53326 17.4116 18.4347 192.202 -264.366 556.037
lowerback 5.69563 -6.17148 0.704347
upperback 0.719062 -8.26602 -4.50742
thorax -3.20014 -4.13934 -4.32004
lowerneck 9.7641 -12.3847 -7.31124
upperneck 10.2261 -17.1493 3.99868
head 2.7657 -8.69529 2.48687
rclavicle 6.95746e-016 1.90833e-014
rhumerus 3.59707 -24.3499 -16.8157
rradius 58.4537
rwrist 2.19408
rhand 12.4619 11.4961
rfingers 7.12502
rthumb 37.4575 -14.4487
lclavicle 6.95746e-016 1.90833e-014
lhumerus -47.0826 42.172 55.718
lradius 25.3981
lwrist -30.1881
lhand -9.15747 -6.05329
lfingers 7.12502
lthumb 16.7948 23.2403
rfemur 4.08234 32.8126 27.475
rtibia 26.4398
rfoot -49.4619 -36.7005
rtoes -2.15622
lfemur -6.46698 5.56802 -9.5605
ltibia 38.0626
lfoot -19.6063 13.2702
ltoes -14.6245
164
root 1.53448 17.4095 18.4249 193.439 -264.797 557.258
lowerback 5.72051 -6.18298 0.705259
upperback 0.717328 -8.2812 -4.49176
thorax -3.21487 -4.14673 -4.29994
lowerneck 9.8032 -12.3236 -7.63755
upperneck 10.3556 -17.1049 4.14543
head 2.85059 -8.68287 2.58396
rclavicle -3.31722e-014 -1.43125e-014
rhumerus 2.51078 -25.5687 -17.0421
rradius 60.3063
rwrist 2.22129
rhand 12.1129 11.5661
rfingers 7.12502
rthumb 37.1275 -14.4653
lclavicle -3.31722e-014 -1.43125e-014
lhumerus -46.6048 41.7895 56.3366
lradius 25.6271
lwrist -29.6689
lhand -9.26604 -5.91585
lfingers 7.12502
lthumb 16.6903 23.3866
rfemur 4.18792 32.8309 27.566
rtibia 26.4283
rfoot -49.9836 -36.9127
rtoes -2.00367
lfemur -6.71748 5.90885 -9.59717
ltibia 38.2064
lfoot -19.6972 13.2025
ltoes -14.3683
165
root 1.53469 17.4073 18.413 194.818 -265.242 558.629
lowerback 5.75621 -6.19539 0.738653
upperback 0.731655 -8.29531 -4.48454
thorax -3.22475 -4.1539 -4.30613
lowerneck 9.78645 -12.2693 -7.87816
upperneck 10.4927 -17.0559 4.22936
head 2.93185 -8.66529 2.64386
rclavicle 3.95457e-014 2.62396e-014
rhumerus 1.37727 -26.7676 -17.2199
rradius 62.2645
rwrist 2.1544
rhand 11.7569 11.4827
rfingers 7.12502
rthumb 36.7907 -14.6356
lclavicle 3.95457e-014 2.62396e-014
lhumerus -46.1183 41.4657 56.9301
lradius 25.8318
lwrist -29.1842
lhand -9.42143 -5.74689
lfingers 7.12502
lthumb 16.5407 23.5681
rfemur 4.30084 32.8407 27.6605
rtibia 26.4072
rfoot -50.5161 -37.1237
rtoes -1.89983
lfemur -6.98786 6.31856 -9.63334
ltibia 38.3869
lfoot -19.7421 13.1279
ltoes -14.2892
166
root 1.53501 17.405 18.3999 196.655 -265.69 560.458
lowerback 5.79385 -6.20871 0.744739
upperback 0.740611 -8.31227 -4.47039
thorax -3.2366 -4.16204 -4.28946
lowerneck 9.79373 -12.1869 -8.03158
upperneck 10.5787 -16.958 4.25511
head 2.97202 -8.62099 2.6768
rclavicle 1.02585e-013 4.77083e-014
rhumerus 0.205008 -27.8977 -17.3352
rradius 64.2943
rwrist 2.00051
rhand 11.3464 11.3327
rfingers 7.12502
rthumb 36.4022 -14.884
lclavicle 1.02585e-013 4.77083e-014
lhumerus -45.6968 41.2133 57.4422
lradius 26.0221
lwrist -28.7474
lhand -9.566 -5.59511
lfingers 7.12502
lthumb 16.4015 23.7315
rfemur 4.40065 32.7728 27.7146
rtibia 26.3847
rfoot -50.9554 -37.2959
rtoes -1.78392
lfemur -7.28721 6.7841 -9.69308
ltibia 38.6009
lfoot -19.7764 13.0612
ltoes -14.2692
167
root 1.53558 17.4025 18.3857 198.748 -266.165 562.542
lowerback 5.84456 -6.23442 0.73518
upperback 0.733168 -8.34725 -4.43258
thorax -3.26843 -4.17913 -4.23547
lowerneck 9.82398 -12.0712 -8.07359
upperneck 10.6344 -16.8002 4.19059
head 2.97148 -8.54364 2.66772
rclavicle 4.15708e-014 8.74653e-015
rhumerus -0.944928 -28.941 -17.4022
rradius 66.325
rwrist 1.76955
rhand 10.838 11.1207
rfingers 7.12502
rthumb 35.9208 -15.2153
lclavicle 4.15708e-014 8.74653e-015
lhumerus -45.3693 40.995 57.8959
lradius 26.2213
lwrist -28.3301
lhand -9.75614 -5.4325
lfingers 7.12502
lthumb 16.2185 23.9091
rfemur 4.48967 32.6346 27.7668
rtibia 26.3552
rfoot -51.3679 -37.4445
rtoes -1.74589
lfemur -7.62059 7.38243 -9.72171
ltibia 38.8545
lfoot -19.7699 12.9388
ltoes -14.4617
